<?xml version="1.0" standalone="no"?>
<!DOCTYPE svg PUBLIC "-//W3C//DTD SVG 1.0//EN" "http://www.w3.org/TR/2001/REC-SVG-20010904/DTD/svg10.dtd">
<svg xmlns="http://www.w3.org/2000/svg" xmlns:xlink="http://www.w3.org/1999/xlink" id="body_1" width="12" height="8">

<defs>
    <clipPath  id="1">

    <path id=""  clip-rule="evenodd" transform="matrix(1 0 0 1 0 0)"  d="M9 0L9 6L9 6L0 6L0 6L0 0L0 0L9 0z" />    </clipPath>
</defs>

<g transform="matrix(1.3333 0 0 1.3333 0 0)">
	<g clip-path="url(#1)" >
    <path id=""  transform="matrix(1 0 0 -1 0 6)"  d="M7.9425 5.55762L7.9425 5.55762L7.9425 5.55762L4.5 2.1226199L4.5 2.1226199L1.0574999 5.55762L1.0574999 5.55762L0 4.50012L0 4.50012L4.5 0.0001169085L4.5 0.0001169085L9 4.50012L9 4.50012L7.9425 5.55762z" stroke="#FFFFFF" stroke-width="1" fill="#464646" fill-rule="nonzero" />
	</g>
</g>
</svg>