<svg width="34" height="34" viewBox="0 0 34 34" fill="none" xmlns="http://www.w3.org/2000/svg">
<g clip-path="url(#clip0_800:2)">
<path d="M20.1875 28.6874H28.6875C29.7378 28.6874 30.6303 28.4504 31.3714 28.0376L20.1875 21.3662V28.6874Z" fill="#2E3192"/>
<path d="M33.8195 24.5491C33.9407 24.0088 34.0023 23.4367 34.0023 22.8433V20.187H26.5063L33.8174 24.5491" fill="#2E3192"/>
<path d="M0.186001 9.43457C0.0600963 9.99978 -0.0022697 10.5773 6.30904e-05 11.1564V13.8126H7.52469L0.186001 9.43457Z" fill="#2E3192"/>
<path d="M13.8127 5.3125H5.31267C4.26983 5.3125 3.38317 5.54625 2.64526 5.95319L13.8127 12.6151V5.3125Z" fill="#2E3192"/>
<path d="M2.6792 28.0636C3.4102 28.4588 4.28517 28.6873 5.31261 28.6873H13.8126V21.4219L2.6792 28.0636Z" fill="#2E3192"/>
<path d="M0 20.1875V22.8437C0 23.4552 0.0648125 24.0444 0.192844 24.5985L7.58731 20.1875H0Z" fill="#2E3192"/>
<path d="M31.4048 5.97922C30.6579 5.55528 29.7532 5.3125 28.6875 5.3125H20.1875V12.6708L31.4048 5.97922Z" fill="#2E3192"/>
<path d="M34 13.8125V11.1562C34 10.575 33.9399 10.0146 33.8236 9.48438L26.5688 13.8125H34Z" fill="#2E3192"/>
<path d="M26.5689 13.8125L33.8236 9.48441C33.4911 7.96291 32.6814 6.70331 31.4048 5.97922L20.1875 12.6708V5.3125H19.125V14.875H34V13.8125H26.5689Z" fill="#E6E7E8"/>
<path d="M0 19.125V20.1875H7.58731L0.192844 24.5985C0.544 26.1152 1.37806 27.3604 2.67909 28.0638L13.8125 21.4221V28.6875H14.875V19.125H0Z" fill="#E6E7E8"/>
<path d="M34 19.125H19.125V28.6875H20.1875V21.3663L31.3714 28.0383C32.6575 27.3222 33.4772 26.0695 33.8172 24.5501L26.5062 20.1875H34V19.125Z" fill="#E6E7E8"/>
<path d="M13.8125 5.3125V12.6151L2.64509 5.95319C1.35416 6.66506 0.529125 7.91563 0.185406 9.43447L7.52462 13.8125H0V14.875H14.875V5.3125H13.8125Z" fill="#E6E7E8"/>
<path d="M19.125 14.875V5.3125H14.875V14.875H0V19.125H14.875V28.6875H19.125V19.125H34V14.875H19.125Z" fill="#BE1E2D"/>
<path d="M11.6545 13.8126L1.00295 7.4541C0.773982 7.7941 0.59017 8.1681 0.438232 8.56654L9.22883 13.8126H11.6529" fill="#BE1E2D"/>
<path d="M33.5167 25.5478L24.5848 20.1875H22.1113L32.9026 26.6788C33.1529 26.3292 33.3591 25.95 33.5167 25.5499" fill="#BE1E2D"/>
<path d="M32.2571 6.58252L20.1711 13.8123L22.625 13.8139L33.054 7.57011C32.8213 7.14671 32.5758 6.87364 32.2571 6.58252Z" fill="#BE1E2D"/>
<path d="M0.963135 26.4961C1.20211 26.86 1.4897 27.1896 1.81792 27.4757L13.8459 20.1875H11.4219L0.963135 26.4961Z" fill="#BE1E2D"/>
</g>
<defs>
<clipPath id="clip0_800:2">
<rect width="34" height="34" fill="white"/>
</clipPath>
</defs>
</svg>
