<svg width="39" height="44" viewBox="0 0 39 44" fill="none" xmlns="http://www.w3.org/2000/svg">
<path d="M17.2829 15.064C17.2829 20.3656 21.5074 24.6788 26.7001 24.6788C31.8927 24.6788 36.1172 20.3656 36.1172 15.064C36.1172 9.76234 31.8927 5.44912 26.7001 5.44912C21.5074 5.44912 17.2829 9.76234 17.2829 15.064ZM34.6822 15.064C34.6822 19.5577 31.1015 23.2137 26.7001 23.2137C22.2986 23.2137 18.7179 19.5577 18.7179 15.064C18.7179 10.5702 22.2986 6.91424 26.7001 6.91424C31.1015 6.91424 34.6822 10.5702 34.6822 15.064ZM26.7001 10.1192C27.0963 10.1192 27.4175 10.4472 27.4175 10.8517V11.1609C28.2526 11.4633 28.8526 12.2776 28.8526 13.2326C28.8526 13.6371 28.5313 13.9651 28.135 13.9651C27.7388 13.9651 27.4175 13.6371 27.4175 13.2326C27.4175 12.8286 27.0957 12.5 26.7001 12.5C26.3044 12.5 25.9825 12.8286 25.9825 13.2326V13.529C25.9825 13.8511 26.1849 14.132 26.4861 14.2282L27.342 14.5013C28.2455 14.7896 28.8526 15.6326 28.8526 16.5989V16.8953C28.8526 17.9501 28.1208 18.8335 27.1485 19.0448V19.2762C27.1485 19.6807 26.8272 20.0087 26.431 20.0087C26.0347 20.0087 25.7135 19.6807 25.7135 19.2762V18.8476C25.0216 18.4817 24.5476 17.7442 24.5476 16.8953C24.5476 16.4908 24.8688 16.1628 25.265 16.1628C25.6613 16.1628 25.9825 16.4908 25.9825 16.8953C25.9825 17.2993 26.3044 17.6279 26.7001 17.6279C27.0957 17.6279 27.4175 17.2993 27.4175 16.8953V16.5989C27.4175 16.2768 27.2152 15.9959 26.914 15.8997L26.0581 15.6266C25.1546 15.3383 24.5476 14.4953 24.5476 13.529V13.2326C24.5476 12.2776 25.1475 11.4633 25.9825 11.1609V10.8517C25.9825 10.4472 26.3038 10.1192 26.7001 10.1192ZM38.3594 29.532V38.8721C38.3594 41.6997 36.1063 44 33.3369 44H5.71317C2.9438 44 0.690674 41.6997 0.690674 38.8721V2.97674C0.690674 1.36099 1.97814 0.0465088 3.56067 0.0465088H26.8794C28.462 0.0465088 29.7494 1.36099 29.7494 2.97674C29.7494 3.3813 29.4282 3.7093 29.0319 3.7093C28.6357 3.7093 28.3144 3.3813 28.3144 2.97674C28.3144 2.16891 27.6706 1.51163 26.8794 1.51163H3.56067C2.76945 1.51163 2.12567 2.16891 2.12567 2.97674V38.8721C2.12567 40.8918 3.73503 42.5349 5.71317 42.5349H29.8267C28.8944 41.6034 28.3144 40.3059 28.3144 38.8721V27.4259C28.3144 27.0213 28.6357 26.6933 29.0319 26.6933C29.4282 26.6933 29.7494 27.0213 29.7494 27.4259V38.8721C29.7494 40.8918 31.3588 42.5349 33.3369 42.5349C35.3151 42.5349 36.9244 40.8918 36.9244 38.8721V29.532C36.9244 28.7241 36.2806 28.0669 35.4894 28.0669H32.4401C32.0438 28.0669 31.7225 27.7389 31.7225 27.3343C31.7225 26.9297 32.0438 26.6017 32.4401 26.6017H35.4894C37.072 26.6017 38.3594 27.9162 38.3594 29.532ZM6.9688 19.734C6.9688 19.3295 7.29006 19.0014 7.6863 19.0014H13.785C14.1813 19.0014 14.5025 19.3295 14.5025 19.734C14.5025 20.1386 14.1813 20.4666 13.785 20.4666H7.6863C7.29006 20.4666 6.9688 20.1386 6.9688 19.734ZM6.9688 11.4927C6.9688 11.0882 7.29006 10.7602 7.6863 10.7602H13.785C14.1813 10.7602 14.5025 11.0882 14.5025 11.4927C14.5025 11.8973 14.1813 12.2253 13.785 12.2253H7.6863C7.29006 12.2253 6.9688 11.8973 6.9688 11.4927ZM23.4713 27.9753C23.4713 28.3798 23.15 28.7078 22.7538 28.7078H7.6863C7.29006 28.7078 6.9688 28.3798 6.9688 27.9753C6.9688 27.5707 7.29006 27.2427 7.6863 27.2427H22.7538C23.15 27.2427 23.4713 27.5707 23.4713 27.9753ZM23.4713 35.6671C23.4713 36.0717 23.15 36.3997 22.7538 36.3997H7.6863C7.29006 36.3997 6.9688 36.0717 6.9688 35.6671C6.9688 35.2626 7.29006 34.9346 7.6863 34.9346H22.7538C23.15 34.9346 23.4713 35.2626 23.4713 35.6671Z" fill="white"/>
</svg>
