<svg width="26" height="26" viewBox="0 0 26 26" fill="none" xmlns="http://www.w3.org/2000/svg">
<path d="M13 14.0835C14.7949 14.0835 16.25 12.6284 16.25 10.8335C16.25 9.03857 14.7949 7.5835 13 7.5835C11.2051 7.5835 9.75 9.03857 9.75 10.8335C9.75 12.6284 11.2051 14.0835 13 14.0835Z" stroke="#686868" stroke-width="2" stroke-linecap="round" stroke-linejoin="round"/>
<path d="M13 2.16675C10.7015 2.16675 8.4971 3.07984 6.87178 4.70516C5.24647 6.33047 4.33337 8.53487 4.33337 10.8334C4.33337 12.8831 4.76887 14.2242 5.95837 15.7084L13 23.8334L20.0417 15.7084C21.2312 14.2242 21.6667 12.8831 21.6667 10.8334C21.6667 8.53487 20.7536 6.33047 19.1283 4.70516C17.503 3.07984 15.2986 2.16675 13 2.16675V2.16675Z" stroke="#686868" stroke-width="2" stroke-linecap="round" stroke-linejoin="round"/>
</svg>
