<svg width="26" height="26" viewBox="0 0 26 26" fill="none" xmlns="http://www.w3.org/2000/svg">
<path d="M18.4601 4.94H11.1801C10.4215 4.94 9.6941 5.24132 9.15774 5.77768C8.62139 6.31403 8.32007 7.04148 8.32007 7.8V10.14H9.88007V7.8C9.88007 7.45522 10.017 7.12456 10.2608 6.88076C10.5046 6.63697 10.8353 6.5 11.1801 6.5H18.4601C18.8049 6.5 19.1355 6.63697 19.3793 6.88076C19.6231 7.12456 19.7601 7.45522 19.7601 7.8V18.2C19.7601 18.5448 19.6231 18.8754 19.3793 19.1192C19.1355 19.363 18.8049 19.5 18.4601 19.5H11.1801C10.8353 19.5 10.5046 19.363 10.2608 19.1192C10.017 18.8754 9.88007 18.5448 9.88007 18.2V15.86H8.32007V18.2C8.32007 18.9585 8.62139 19.686 9.15774 20.2223C9.6941 20.7587 10.4215 21.06 11.1801 21.06H18.4601C19.2186 21.06 19.946 20.7587 20.4824 20.2223C21.0188 19.686 21.3201 18.9585 21.3201 18.2V7.8C21.3201 7.04148 21.0188 6.31403 20.4824 5.77768C19.946 5.24132 19.2186 4.94 18.4601 4.94Z" fill="white"/>
<path d="M12.6775 15.86L13.7799 16.9624L17.1911 13.5512C17.3372 13.405 17.4193 13.2067 17.4193 13C17.4193 12.7933 17.3372 12.5951 17.1911 12.4488L13.7799 9.0376L12.6775 10.14L14.7575 12.22H4.67993V13.78H14.7575L12.6775 15.86Z" fill="white"/>
</svg>
