<svg width="22" height="18" viewBox="0 0 22 18" fill="none" xmlns="http://www.w3.org/2000/svg">
<path d="M19.6666 17.6668H2.33329C1.75866 17.6668 1.20756 17.4386 0.801228 17.0322C0.394899 16.6259 0.166626 16.0748 0.166626 15.5002V2.40591C0.190928 1.84777 0.429886 1.32058 0.833611 0.934422C1.23734 0.548259 1.77462 0.332968 2.33329 0.333497H19.6666C20.2413 0.333497 20.7924 0.56177 21.1987 0.968099C21.605 1.37443 21.8333 1.92553 21.8333 2.50016V15.5002C21.8333 16.0748 21.605 16.6259 21.1987 17.0322C20.7924 17.4386 20.2413 17.6668 19.6666 17.6668ZM2.33329 4.52383V15.5002H19.6666V4.52383L11 10.3002L2.33329 4.52383ZM3.19996 2.50016L11 7.70016L18.8 2.50016H3.19996Z" fill="#686868"/>
</svg>
