<svg width="24" height="24" viewBox="0 0 24 24" fill="none" xmlns="http://www.w3.org/2000/svg">
<path d="M10.4335 5.75995L6.76855 1.52953C6.34605 1.04203 5.57147 1.0442 5.08072 1.53603L2.06688 4.55528C1.16988 5.45337 0.913133 6.78695 1.43205 7.8562C4.53214 14.2749 9.70877 19.4588 16.1231 22.5679C17.1913 23.0868 18.5238 22.83 19.4208 21.9319L22.4628 18.8845C22.9557 18.3916 22.9568 17.6127 22.465 17.1902L18.2183 13.5448C17.7741 13.1634 17.0841 13.2133 16.6388 13.6596L15.1611 15.1394C15.0855 15.2187 14.9859 15.271 14.8777 15.2882C14.7695 15.3054 14.6586 15.2867 14.5621 15.2348C12.1467 13.8439 10.1431 11.8377 8.75538 9.42053C8.70341 9.32385 8.68459 9.21278 8.70182 9.10437C8.71904 8.99596 8.77134 8.89619 8.85072 8.82037L10.3241 7.34595C10.7704 6.89745 10.8191 6.20412 10.4335 5.75887V5.75995Z" stroke="#686868" stroke-width="2" stroke-linecap="round" stroke-linejoin="round"/>
</svg>
