<svg width="50" height="50" viewBox="0 0 50 50" fill="none" xmlns="http://www.w3.org/2000/svg">
<path d="M7.19897 41.9479V29.2358C7.19897 28.728 7.61068 28.3166 8.11822 28.3166H20.8306C21.3381 28.3166 21.7498 28.728 21.7498 29.2358V31.6462C21.7498 32.1541 21.3381 32.5655 20.8306 32.5655C20.3231 32.5655 19.9116 32.1541 19.9116 31.6462V30.1548H9.03747V41.029H19.9116V38.816C19.9116 38.3081 20.3231 37.8964 20.8306 37.8964C21.3381 37.8964 21.7498 38.3081 21.7498 38.816V41.9479C21.7498 42.4558 21.3381 42.8672 20.8306 42.8672H8.11822C7.61068 42.8672 7.19897 42.4558 7.19897 41.9479Z" fill="white"/>
<path d="M12.5674 38.4177C12.0596 38.4177 11.6484 38.0063 11.6484 37.4988V33.685C11.6484 33.1775 12.0596 32.7658 12.5674 32.7658H16.3811C16.8887 32.7658 17.3004 33.1775 17.3004 33.685V37.4988C17.3004 38.0063 16.8887 38.4177 16.3811 38.4177H12.5674ZM15.4622 34.604H13.4866V36.5795H15.4622V34.604Z" fill="white"/>
<path d="M20.8306 21.7521H8.11822C7.61068 21.7521 7.19897 21.3407 7.19897 20.8331V8.12043C7.19897 7.61288 7.61068 7.20146 8.11822 7.20146H20.8306C21.3381 7.20146 21.7498 7.61288 21.7498 8.12043V20.8331C21.7498 21.3407 21.3381 21.7521 20.8306 21.7521ZM19.9116 9.03967H9.03747V19.9139H19.9116V9.03967Z" fill="white"/>
<path d="M29.2969 28.3166H42.0096C42.5169 28.3166 42.9286 28.728 42.9286 29.2358V41.9479C42.9286 42.4558 42.5169 42.8672 42.0096 42.8672H29.2969C28.7894 42.8672 28.3777 42.4558 28.3777 41.9479V29.2358C28.3777 28.728 28.7894 28.3166 29.2969 28.3166ZM30.2159 41.029H41.0901V30.1548H30.2159V41.029Z" fill="white"/>
<path d="M42.9286 8.12043V20.8331C42.9286 21.3407 42.5169 21.7521 42.0096 21.7521H29.2969C28.7894 21.7521 28.3777 21.3407 28.3777 20.8331V8.12043C28.3777 7.61288 28.7894 7.20146 29.2969 7.20146H42.0096C42.5169 7.20146 42.9286 7.61288 42.9286 8.12043ZM41.0901 9.03967H30.2159V19.9139H41.0901V9.03967Z" fill="white"/>
<path d="M42.0095 24.0596C42.5168 24.0596 42.9285 24.4713 42.9285 24.9789C42.9285 25.4867 42.5168 25.8978 42.0095 25.8978H25.894V42.0497C25.894 42.5573 25.4823 42.969 24.975 42.969C24.4669 42.969 24.0555 42.5573 24.0555 42.0497V25.8978H11.8555C11.3482 25.8978 10.9365 25.4864 10.9365 24.9789C10.9365 24.4711 11.3482 24.0596 11.8555 24.0596H24.0555V8.12059C24.0555 7.61305 24.4669 7.20163 24.975 7.20163C25.4823 7.20163 25.894 7.61305 25.894 8.12059V24.0596H42.0095Z" fill="white"/>
<path d="M12.5674 11.5825H16.3811C16.8887 11.5825 17.3004 11.9942 17.3004 12.5017V16.3154C17.3004 16.8233 16.8887 17.2344 16.3811 17.2344H12.5674C12.0596 17.2344 11.6484 16.8233 11.6484 16.3154V12.5017C11.6484 11.9942 12.0596 11.5825 12.5674 11.5825ZM13.4866 15.3962H15.4622V13.4207H13.4866V15.3962Z" fill="white"/>
<path d="M37.5599 38.4177H33.7462C33.2386 38.4177 32.8269 38.0063 32.8269 37.4988V33.685C32.8269 33.1775 33.2386 32.7658 33.7462 32.7658H37.5599C38.0677 32.7658 38.4791 33.1775 38.4791 33.685V37.4988C38.4791 38.0063 38.0677 38.4177 37.5599 38.4177ZM36.6407 34.604H34.6657V36.5795H36.6407V34.604Z" fill="white"/>
<path d="M33.7462 11.5825H37.5599C38.0677 11.5825 38.4791 11.9942 38.4791 12.5017V16.3154C38.4791 16.8233 38.0677 17.2344 37.5599 17.2344H33.7462C33.2386 17.2344 32.8269 16.8233 32.8269 16.3154V12.5017C32.8269 11.9942 33.2386 11.5825 33.7462 11.5825ZM34.6657 15.3962H36.6407V13.4207H34.6657V15.3962Z" fill="white"/>
<path d="M7.93231 25.8942L7.88282 25.8828C7.38872 25.766 7.08259 25.2711 7.19903 24.777C7.29888 24.3538 7.67625 24.0683 8.09282 24.0683C8.16291 24.0683 8.23358 24.0766 8.30453 24.0935L8.35374 24.1049C8.84813 24.2214 9.15426 24.7163 9.03753 25.2104C8.92137 25.7042 8.42641 26.0104 7.93231 25.8942Z" fill="white"/>
<path d="M20.6456 36.1483L20.5961 36.1365C20.102 36.0207 19.7956 35.526 19.9115 35.0316C20.0104 34.6079 20.3881 34.3221 20.8055 34.3221C20.8748 34.3221 20.9451 34.3301 21.0161 34.347L21.0653 34.3584C21.5597 34.4743 21.8661 34.9693 21.7502 35.4631C21.6344 35.9572 21.1394 36.2641 20.6456 36.1483Z" fill="white"/>
<path d="M2.45705 40.8846C2.96516 40.8846 3.37629 41.296 3.37629 41.8035V46.5751H7.97424C8.48207 46.5751 8.89377 46.9863 8.89377 47.4941C8.89377 48.0016 8.48207 48.4133 7.97424 48.4133H2.45705C1.94979 48.4133 1.53809 48.0016 1.53809 47.4941V41.8035C1.53809 41.296 1.94979 40.8846 2.45705 40.8846Z" fill="white"/>
<path d="M47.4941 48.4133H41.9769C41.4691 48.4133 41.0574 48.0016 41.0574 47.4941C41.0574 46.9863 41.4691 46.5751 41.9769 46.5751H46.5749V41.8035C46.5749 41.296 46.986 40.8846 47.4941 40.8846C48.0014 40.8846 48.4131 41.296 48.4131 41.8035V47.4941C48.4131 48.0016 48.0014 48.4133 47.4941 48.4133Z" fill="white"/>
<path d="M7.97424 3.4159H3.37629V8.18724C3.37629 8.6945 2.96516 9.1062 2.45705 9.1062C1.94979 9.1062 1.53809 8.6945 1.53809 8.18724V2.49666C1.53809 1.98911 1.94979 1.57741 2.45705 1.57741H7.97424C8.48207 1.57741 8.89377 1.98911 8.89377 2.49666C8.89377 3.00449 8.48207 3.4159 7.97424 3.4159Z" fill="white"/>
<path d="M47.4941 9.1062C46.986 9.1062 46.5749 8.6945 46.5749 8.18724V3.4159H41.9769C41.4691 3.4159 41.0574 3.00449 41.0574 2.49666C41.0574 1.98911 41.4691 1.57741 41.9769 1.57741H47.4941C48.0014 1.57741 48.4131 1.98911 48.4131 2.49666V8.18724C48.4131 8.6945 48.0014 9.1062 47.4941 9.1062Z" fill="white"/>
</svg>
