<svg width="34" height="34" viewBox="0 0 34 34" fill="none" xmlns="http://www.w3.org/2000/svg">
<g clip-path="url(#clip0_795:45)">
<path d="M34 25.4999C34 26.5019 33.602 27.4628 32.8935 28.1712C32.185 28.8797 31.2241 29.2777 30.2222 29.2777H3.77778C2.77585 29.2777 1.81496 28.8797 1.10649 28.1712C0.398015 27.4628 0 26.5019 0 25.4999V21.7222H34V25.4999Z" fill="#CE2028"/>
<path d="M0 12.2778H34V21.7223H0V12.2778Z" fill="#22408C"/>
<path d="M30.2222 4.72217H3.77778C2.77585 4.72217 1.81496 5.12018 1.10649 5.82865C0.398015 6.53712 0 7.49802 0 8.49995L0 12.2777H34V8.49995C34 7.49802 33.602 6.53712 32.8935 5.82865C32.185 5.12018 31.2241 4.72217 30.2222 4.72217Z" fill="#EEEEEE"/>
</g>
<defs>
<clipPath id="clip0_795:45">
<rect width="34" height="34" fill="white"/>
</clipPath>
</defs>
</svg>
