<svg width="84" height="84" viewBox="0 0 84 84" fill="none" xmlns="http://www.w3.org/2000/svg">
<path d="M46.1667 25.3333C49.4819 25.3333 52.6613 26.6503 55.0055 28.9945C57.3497 31.3387 58.6667 34.5181 58.6667 37.8333C58.6667 38.9384 59.1056 39.9982 59.8871 40.7796C60.6685 41.561 61.7283 42 62.8333 42C63.9384 42 64.9982 41.561 65.7796 40.7796C66.561 39.9982 67 38.9384 67 37.8333C67 32.308 64.8051 27.0089 60.8981 23.1019C56.991 19.1949 51.692 17 46.1667 17C45.0616 17 44.0018 17.439 43.2204 18.2204C42.439 19.0018 42 20.0616 42 21.1667C42 22.2717 42.439 23.3315 43.2204 24.1129C44.0018 24.8943 45.0616 25.3333 46.1667 25.3333Z" fill="#D63041"/>
<path d="M46.1667 8.66683C53.9022 8.66683 61.3208 11.7397 66.7907 17.2095C72.2605 22.6794 75.3334 30.098 75.3334 37.8335C75.3334 38.9386 75.7724 39.9984 76.5538 40.7798C77.3352 41.5612 78.395 42.0002 79.5 42.0002C80.6051 42.0002 81.6649 41.5612 82.4463 40.7798C83.2277 39.9984 83.6667 38.9386 83.6667 37.8335C83.6667 27.8879 79.7158 18.3496 72.6832 11.317C65.6506 4.28438 56.1123 0.333496 46.1667 0.333496C45.0616 0.333496 44.0018 0.772483 43.2204 1.55388C42.439 2.33529 42 3.39509 42 4.50016C42 5.60523 42.439 6.66504 43.2204 7.44644C44.0018 8.22784 45.0616 8.66683 46.1667 8.66683ZM82.625 58.2918C82.3959 57.6229 82.0002 57.0234 81.4754 56.5496C80.9506 56.0758 80.3138 55.7433 79.6251 55.5835L54.625 49.8752C53.9464 49.7213 53.2401 49.7398 52.5705 49.9291C51.9009 50.1183 51.2894 50.4722 50.7917 50.9585C50.2084 51.5002 50.1667 51.5418 47.4584 56.7085C38.4717 52.5675 31.2709 45.3371 27.1667 36.3335C32.4584 33.6668 32.5 33.6668 33.0417 33.0418C33.528 32.5442 33.8819 31.9326 34.0711 31.263C34.2604 30.5934 34.2789 29.8871 34.125 29.2085L28.4167 4.50016C28.2569 3.8114 27.9244 3.17462 27.4506 2.64979C26.9768 2.12496 26.3773 1.72934 25.7084 1.50016C24.7353 1.15262 23.7305 0.901414 22.7084 0.750162C21.6553 0.505976 20.5806 0.36641 19.5 0.333496C14.4167 0.333496 9.54161 2.35284 5.94716 5.94728C2.35271 9.54173 0.333374 14.4168 0.333374 19.5002C0.355424 36.5115 7.1229 52.8197 19.1517 64.8485C31.1805 76.8773 47.4888 83.6448 64.5 83.6668C67.017 83.6668 69.5094 83.1711 71.8348 82.2079C74.1602 81.2446 76.2731 79.8328 78.0529 78.053C79.8327 76.2733 81.2445 74.1603 82.2077 71.8349C83.171 69.5095 83.6667 67.0172 83.6667 64.5002C83.668 63.4396 83.5844 62.3807 83.4167 61.3335C83.2416 60.2986 82.9767 59.2808 82.625 58.2918ZM64.5 75.3335C49.6955 75.3225 35.5005 69.4365 25.0321 58.9681C14.5637 48.4997 8.67774 34.3047 8.66671 19.5002C8.67768 16.6304 9.82257 13.8812 11.8518 11.852C13.8811 9.82269 16.6302 8.6778 19.5 8.66683H20.875L25.3334 28.0002L23.0834 29.1668C19.5 31.0418 16.6667 32.5418 18.1667 35.7918C20.6093 42.7067 24.5616 48.9907 29.7364 54.1872C34.9113 59.3836 41.1787 63.3621 48.0834 65.8335C51.5834 67.2502 52.9584 64.6252 54.8334 61.0002L56.0417 58.7085L75.3334 63.1252V64.5002C75.3224 67.37 74.1775 70.1191 72.1482 72.1484C70.119 74.1776 67.3698 75.3225 64.5 75.3335Z" fill="#D63041"/>
</svg>
