<svg width="34" height="34" viewBox="0 0 34 34" fill="none" xmlns="http://www.w3.org/2000/svg">
<path d="M34 22.8438C34 26.0711 32.2081 28.6875 28.6875 28.6875H5.3125C1.79191 28.6875 0 26.0711 0 22.8438V11.1562C0 7.92891 1.79191 5.3125 5.3125 5.3125H28.6875C32.2081 5.3125 34 7.92891 34 11.1562V22.8438Z" fill="#EC1C24"/>
<path fill-rule="evenodd" clip-rule="evenodd" d="M21.1321 20.3576C19.9091 22.2653 17.3629 23.4686 14.6986 22.6903C12.1842 21.954 10.4571 19.5177 10.6 16.8901C10.7392 14.2509 12.7219 12.0064 15.2984 11.5511C18.0285 11.0661 20.2215 12.5296 21.1581 14.0618C20.0483 12.9706 18.7579 12.4792 17.247 12.6518C16.0634 12.7878 15.0742 13.3228 14.2997 14.2259C12.7835 15.9907 12.8393 18.6374 14.4224 20.3029C15.3303 21.2581 16.447 21.758 17.765 21.7702C19.082 21.7798 20.1992 21.2815 21.1353 20.3603" fill="white"/>
<path d="M23.4972 15.0854L24.5756 16.0863L26.0143 15.7676L25.3943 17.1063L26.1428 18.3712L24.6819 18.1954L23.7049 19.3004L23.4228 17.8543L22.0692 17.2678L23.3559 16.5538L23.4972 15.0854Z" fill="white"/>
</svg>
