<svg width="12" height="12" viewBox="0 0 12 12" fill="none" xmlns="http://www.w3.org/2000/svg">
<path d="M0.968997 0.968875C1.03867 0.899031 1.12143 0.843616 1.21255 0.805806C1.30366 0.767997 1.40135 0.748535 1.5 0.748535C1.59865 0.748535 1.69633 0.767997 1.78745 0.805806C1.87857 0.843616 1.96133 0.899031 2.031 0.968875L6 4.93938L9.969 0.968875C10.0387 0.899143 10.1215 0.843829 10.2126 0.80609C10.3037 0.768352 10.4014 0.748928 10.5 0.748928C10.5986 0.748928 10.6963 0.768352 10.7874 0.80609C10.8785 0.843829 10.9613 0.899143 11.031 0.968875C11.1007 1.03861 11.156 1.12139 11.1938 1.2125C11.2315 1.30361 11.2509 1.40126 11.2509 1.49988C11.2509 1.59849 11.2315 1.69614 11.1938 1.78725C11.156 1.87836 11.1007 1.96114 11.031 2.03088L7.0605 5.99987L11.031 9.96887C11.1007 10.0386 11.156 10.1214 11.1938 10.2125C11.2315 10.3036 11.2509 10.4013 11.2509 10.4999C11.2509 10.5985 11.2315 10.6961 11.1938 10.7872C11.156 10.8784 11.1007 10.9611 11.031 11.0309C10.9613 11.1006 10.8785 11.1559 10.7874 11.1937C10.6963 11.2314 10.5986 11.2508 10.5 11.2508C10.4014 11.2508 10.3037 11.2314 10.2126 11.1937C10.1215 11.1559 10.0387 11.1006 9.969 11.0309L6 7.06037L2.031 11.0309C1.96127 11.1006 1.87848 11.1559 1.78737 11.1937C1.69626 11.2314 1.59861 11.2508 1.5 11.2508C1.40138 11.2508 1.30373 11.2314 1.21262 11.1937C1.12151 11.1559 1.03873 11.1006 0.968997 11.0309C0.899266 10.9611 0.843951 10.8784 0.806212 10.7872C0.768474 10.6961 0.74905 10.5985 0.74905 10.4999C0.74905 10.4013 0.768474 10.3036 0.806212 10.2125C0.843951 10.1214 0.899266 10.0386 0.968997 9.96887L4.9395 5.99987L0.968997 2.03088C0.899153 1.96121 0.843738 1.87844 0.805928 1.78733C0.768119 1.69621 0.748657 1.59853 0.748657 1.49988C0.748657 1.40122 0.768119 1.30354 0.805928 1.21242C0.843738 1.12131 0.899153 1.03854 0.968997 0.968875Z" fill="#FF0000"/>
</svg>
